<?xml version="1.0" standalone="no"?>
<!DOCTYPE svg PUBLIC "-//W3C//DTD SVG 20010904//EN"
 "http://www.w3.org/TR/2001/REC-SVG-20010904/DTD/svg10.dtd">
<svg version="1.0" xmlns="http://www.w3.org/2000/svg"
 width="32.000000pt" height="32.000000pt" viewBox="0 0 32.000000 32.000000"
 preserveAspectRatio="xMidYMid meet">

<g transform="translate(0.000000,32.000000) scale(0.100000,-0.100000)"
fill="#000000" stroke="none">
<path d="M10 190 c0 -31 17 -39 38 -18 9 9 12 9 12 0 0 -16 30 -16 30 1 0 6 5
4 11 -5 5 -10 18 -18 27 -18 11 0 18 -8 18 -20 0 -11 -4 -20 -8 -20 -4 0 -8 4
-8 9 0 5 -10 6 -22 3 -22 -5 -21 -6 6 -13 38 -10 44 -6 40 29 -3 28 -1 29 31
26 28 -2 33 1 27 14 -5 14 -2 13 14 -2 17 -18 19 -18 22 -3 5 24 22 21 22 -3
0 -18 3 -19 21 -10 11 6 19 19 17 28 -3 14 -16 16 -83 15 -50 0 -81 -5 -83
-12 -2 -7 -11 -3 -23 10 -10 12 -19 18 -19 13 0 -5 -11 -10 -25 -10 -14 -1
-25 2 -25 7 0 5 -9 9 -20 9 -16 0 -20 -7 -20 -30z m30 0 c0 -5 -4 -10 -10 -10
-5 0 -10 5 -10 10 0 6 5 10 10 10 6 0 10 -4 10 -10z m150 -4 c0 -3 -4 -8 -10
-11 -5 -3 -10 -1 -10 4 0 6 5 11 10 11 6 0 10 -2 10 -4z"/>
<path d="M10 146 c0 -2 8 -10 18 -17 15 -13 16 -12 3 4 -13 16 -21 21 -21 13z"/>
</g>
</svg>
